<?xml version="1.0" encoding="UTF-8" standalone="no"?><!DOCTYPE svg PUBLIC "-//W3C//DTD SVG 1.1//EN" "http://www.w3.org/Graphics/SVG/1.1/DTD/svg11.dtd"><svg width="100%" height="100%" viewBox="0 0 513 513" version="1.1" xmlns="http://www.w3.org/2000/svg" xmlns:xlink="http://www.w3.org/1999/xlink" xml:space="preserve" xmlns:serif="http://www.serif.com/" style="fill-rule:evenodd;clip-rule:evenodd;stroke-linejoin:round;stroke-miterlimit:2;"><rect id="Niomon-Icon-Color" serif:id="Niomon Icon Color" x="0.294" y="0.65" width="512" height="512" style="fill:none;"/><clipPath id="_clip1"><rect x="0.294" y="0.65" width="512" height="512"/></clipPath><g clip-path="url(#_clip1)"><rect x="0.294" y="0.65" width="512" height="512" style="fill:#e23c33;"/><path d="M151.141,370.947l69.492,-0l0,-128.927c0,-6.4 0.457,-12.801 2.286,-17.373c5.029,-12.801 16.459,-26.059 35.66,-26.059c25.146,-0 35.204,19.659 35.204,48.461l-0,123.898l69.492,-0l-0,-132.127c-0,-65.835 -34.289,-96.466 -80.008,-96.466c-37.489,-0 -59.891,21.488 -69.035,36.118l-1.371,-0l-3.2,-31.089l-60.349,0c0.915,20.116 1.829,43.433 1.829,71.321l-0,152.243Z" style="fill:#fff;fill-rule:nonzero;"/></g></svg>